<mxfile host="65bd71144e">
    <diagram id="gTRmwRUpjqScOMjJYXQy" name="Página-1">
        <mxGraphModel dx="1395" dy="676" grid="1" gridSize="10" guides="1" tooltips="1" connect="1" arrows="1" fold="1" page="1" pageScale="1" pageWidth="827" pageHeight="1169" background="none" math="0" shadow="0">
            <root>
                <mxCell id="0"/>
                <mxCell id="1" parent="0"/>
                <mxCell id="8" style="edgeStyle=orthogonalEdgeStyle;rounded=0;orthogonalLoop=1;jettySize=auto;html=1;fontFamily=Verdana;exitX=0;exitY=0.5;exitDx=0;exitDy=0;" edge="1" parent="1" source="10" target="9">
                    <mxGeometry relative="1" as="geometry">
                        <mxPoint x="120" y="320" as="targetPoint"/>
                        <mxPoint x="340.00002661698704" y="175.0588235294117" as="sourcePoint"/>
                    </mxGeometry>
                </mxCell>
                <mxCell id="5" value="&lt;font style=&quot;font-size: 31px&quot;&gt;Jornada do usuario&lt;/font&gt;" style="text;html=1;strokeColor=none;fillColor=none;align=center;verticalAlign=middle;whiteSpace=wrap;rounded=0;fontFamily=Verdana;labelBackgroundColor=#007FFF;labelBorderColor=#FFFFFF;" vertex="1" parent="1">
                    <mxGeometry x="450" y="40" width="430" height="20" as="geometry"/>
                </mxCell>
                <mxCell id="9" value="" style="ellipse;whiteSpace=wrap;html=1;aspect=fixed;labelBackgroundColor=none;fontFamily=Verdana;fillColor=#007FFF;" vertex="1" parent="1">
                    <mxGeometry x="60" y="280" width="160" height="160" as="geometry"/>
                </mxCell>
                <mxCell id="10" value="" style="ellipse;whiteSpace=wrap;html=1;aspect=fixed;labelBackgroundColor=none;fontFamily=Verdana;fillColor=#007FFF;" vertex="1" parent="1">
                    <mxGeometry x="336" y="110" width="155" height="155" as="geometry"/>
                </mxCell>
                <mxCell id="11" value="&lt;p&gt;&lt;span style=&quot;color: rgb(240 , 240 , 240) ; font-family: &amp;#34;verdana&amp;#34; ; font-size: 12px ; font-style: normal ; font-weight: 400 ; letter-spacing: normal ; text-indent: 0px ; text-transform: none ; word-spacing: 0px ; display: inline ; float: none ; background-color: rgb(0 , 127 , 255)&quot;&gt;Usuário&amp;nbsp; precisa dividir algo com seus amigos&amp;nbsp;&lt;/span&gt;&lt;/p&gt;" style="text;whiteSpace=wrap;html=1;fontFamily=Verdana;align=center;" vertex="1" parent="1">
                    <mxGeometry x="368.5" y="140" width="90" height="95" as="geometry"/>
                </mxCell>
                <mxCell id="14" style="edgeStyle=orthogonalEdgeStyle;rounded=0;orthogonalLoop=1;jettySize=auto;html=1;fontFamily=Verdana;exitX=1;exitY=0.5;exitDx=0;exitDy=0;" edge="1" parent="1" source="9" target="15">
                    <mxGeometry relative="1" as="geometry">
                        <mxPoint x="690" y="440" as="targetPoint"/>
                        <mxPoint x="200" y="345" as="sourcePoint"/>
                    </mxGeometry>
                </mxCell>
                <mxCell id="13" value="Ele abre a aplicação&amp;nbsp;" style="text;html=1;strokeColor=none;fillColor=none;align=center;verticalAlign=middle;whiteSpace=wrap;rounded=0;labelBackgroundColor=none;fontFamily=Verdana;" vertex="1" parent="1">
                    <mxGeometry x="77.5" y="320" width="122.5" height="80" as="geometry"/>
                </mxCell>
                <mxCell id="17" style="edgeStyle=orthogonalEdgeStyle;rounded=0;orthogonalLoop=1;jettySize=auto;html=1;fontFamily=Verdana;entryX=0.5;entryY=0;entryDx=0;entryDy=0;" edge="1" parent="1" source="15" target="19">
                    <mxGeometry relative="1" as="geometry">
                        <mxPoint x="730" y="530" as="targetPoint"/>
                    </mxGeometry>
                </mxCell>
                <mxCell id="21" style="edgeStyle=orthogonalEdgeStyle;rounded=0;orthogonalLoop=1;jettySize=auto;html=1;fontFamily=Verdana;" edge="1" parent="1" source="15" target="20">
                    <mxGeometry relative="1" as="geometry">
                        <mxPoint x="670" y="110" as="targetPoint"/>
                    </mxGeometry>
                </mxCell>
                <mxCell id="15" value="" style="ellipse;whiteSpace=wrap;html=1;aspect=fixed;labelBackgroundColor=none;fontFamily=Verdana;fillColor=#FFFFFF;" vertex="1" parent="1">
                    <mxGeometry x="610" y="280" width="160" height="160" as="geometry"/>
                </mxCell>
                <mxCell id="16" value="&lt;font color=&quot;#007fff&quot;&gt;Aplicação oferece umaa pagina para informações de valor gasto, numero de pessoas que pagaram e quanto cada pessoa pagou&lt;/font&gt;" style="text;html=1;strokeColor=none;fillColor=none;align=center;verticalAlign=middle;whiteSpace=wrap;rounded=0;labelBackgroundColor=none;fontFamily=Verdana;" vertex="1" parent="1">
                    <mxGeometry x="624.5" y="350" width="131" height="20" as="geometry"/>
                </mxCell>
                <mxCell id="22" style="edgeStyle=orthogonalEdgeStyle;rounded=0;orthogonalLoop=1;jettySize=auto;html=1;fontFamily=Verdana;entryX=1;entryY=0.5;entryDx=0;entryDy=0;" edge="1" parent="1" source="19" target="23">
                    <mxGeometry relative="1" as="geometry">
                        <mxPoint x="290" y="600" as="targetPoint"/>
                    </mxGeometry>
                </mxCell>
                <mxCell id="19" value="&lt;span style=&quot;color: rgb(240 , 240 , 240) ; font-family: &amp;#34;verdana&amp;#34; ; font-size: 12px ; font-style: normal ; font-weight: 400 ; letter-spacing: normal ; text-align: center ; text-indent: 0px ; text-transform: none ; word-spacing: 0px ; display: inline ; float: none&quot;&gt;Usuário preenche as informações necessárias e clica no botão de enviar&lt;/span&gt;" style="ellipse;whiteSpace=wrap;html=1;aspect=fixed;labelBackgroundColor=none;fontFamily=Verdana;fillColor=#007FFF;strokeColor=none;" vertex="1" parent="1">
                    <mxGeometry x="610" y="520" width="160" height="160" as="geometry"/>
                </mxCell>
                <mxCell id="20" value="&lt;font style=&quot;font-size: 11px&quot;&gt;Quando se tornar uma rede social o usuario logado poderá seus amigos para que eles recebam uma notificação e transfiram o dinheiro&amp;nbsp;&lt;/font&gt;" style="ellipse;shape=cloud;whiteSpace=wrap;html=1;labelBackgroundColor=none;fontFamily=Verdana;fillColor=#007FFF;" vertex="1" parent="1">
                    <mxGeometry x="870" y="110" width="191" height="155" as="geometry"/>
                </mxCell>
                <mxCell id="23" value="&lt;font color=&quot;#007fff&quot;&gt;Aplicação devolve para o usuario o valor que cada pessoa deverá pagar e a quantia que cada pessoa que pagou deve receber&lt;/font&gt;" style="ellipse;whiteSpace=wrap;html=1;aspect=fixed;labelBackgroundColor=none;fontFamily=Verdana;fillColor=#FFFFFF;" vertex="1" parent="1">
                    <mxGeometry x="60" y="520" width="160" height="160" as="geometry"/>
                </mxCell>
            </root>
        </mxGraphModel>
    </diagram>
</mxfile>